<mxfile host="app.diagrams.net" modified="2023-10-28T08:40:12.380Z" agent="Mozilla/5.0 (Windows NT 10.0; Win64; x64) AppleWebKit/537.36 (KHTML, like Gecko) Chrome/118.0.0.0 Safari/537.36" etag="rtjWOAJl2aKbAu3ckaKq" version="21.3.4" type="device">
  <diagram name="Page-1" id="nD5j4wFg5aRehoSlD_w6">
    <mxGraphModel dx="1167" dy="629" grid="1" gridSize="10" guides="1" tooltips="1" connect="1" arrows="1" fold="1" page="1" pageScale="1" pageWidth="850" pageHeight="1100" math="0" shadow="0">
      <root>
        <mxCell id="0" />
        <mxCell id="1" parent="0" />
        <mxCell id="zbsmwXQ62eeeNvYu7n_z-1" value="&lt;p style=&quot;line-height: 140%; font-size: 29px;&quot;&gt;&lt;font style=&quot;font-size: 29px;&quot; face=&quot;Times New Roman&quot;&gt;&lt;br&gt;&lt;/font&gt;&lt;/p&gt;" style="whiteSpace=wrap;html=1;aspect=fixed;fillColor=#f5f5f5;strokeColor=#000000;fontColor=#333333;" vertex="1" parent="1">
          <mxGeometry x="260" y="130" width="300" height="300" as="geometry" />
        </mxCell>
        <mxCell id="zbsmwXQ62eeeNvYu7n_z-2" value="" style="endArrow=none;html=1;rounded=0;exitX=0;exitY=0.25;exitDx=0;exitDy=0;entryX=1;entryY=0.25;entryDx=0;entryDy=0;" edge="1" parent="1" source="zbsmwXQ62eeeNvYu7n_z-1" target="zbsmwXQ62eeeNvYu7n_z-1">
          <mxGeometry width="50" height="50" relative="1" as="geometry">
            <mxPoint x="400" y="320" as="sourcePoint" />
            <mxPoint x="450" y="270" as="targetPoint" />
          </mxGeometry>
        </mxCell>
        <mxCell id="zbsmwXQ62eeeNvYu7n_z-4" value="" style="endArrow=none;html=1;rounded=0;exitX=0;exitY=0.25;exitDx=0;exitDy=0;entryX=1;entryY=0.25;entryDx=0;entryDy=0;strokeColor=#000000;" edge="1" parent="1" source="zbsmwXQ62eeeNvYu7n_z-1" target="zbsmwXQ62eeeNvYu7n_z-1">
          <mxGeometry width="50" height="50" relative="1" as="geometry">
            <mxPoint x="400" y="320" as="sourcePoint" />
            <mxPoint x="450" y="270" as="targetPoint" />
          </mxGeometry>
        </mxCell>
        <mxCell id="zbsmwXQ62eeeNvYu7n_z-5" value="&lt;font style=&quot;font-size: 27px;&quot; color=&quot;#000000&quot;&gt;user&lt;/font&gt;" style="text;strokeColor=none;align=center;fillColor=none;html=1;verticalAlign=middle;whiteSpace=wrap;rounded=0;strokeWidth=5;" vertex="1" parent="1">
          <mxGeometry x="270" y="160" width="60" height="30" as="geometry" />
        </mxCell>
        <mxCell id="zbsmwXQ62eeeNvYu7n_z-6" value="&lt;div style=&quot;font-size: 16px;&quot;&gt;&lt;span style=&quot;color: rgb(0, 0, 0); background-color: initial;&quot;&gt;&lt;font style=&quot;font-size: 16px;&quot;&gt;UserID(primary key)&lt;/font&gt;&lt;/span&gt;&lt;/div&gt;&lt;font style=&quot;font-size: 16px;&quot; color=&quot;#000000&quot;&gt;&lt;div style=&quot;&quot;&gt;&lt;span style=&quot;background-color: initial;&quot;&gt;Name&lt;/span&gt;&lt;/div&gt;&lt;div style=&quot;&quot;&gt;&lt;span style=&quot;background-color: initial;&quot;&gt;Email&lt;/span&gt;&lt;/div&gt;&lt;div style=&quot;&quot;&gt;&lt;span style=&quot;background-color: initial;&quot;&gt;Password&lt;/span&gt;&lt;/div&gt;&lt;/font&gt;" style="text;strokeColor=none;align=left;fillColor=none;html=1;verticalAlign=middle;whiteSpace=wrap;rounded=0;" vertex="1" parent="1">
          <mxGeometry x="270" y="215" width="190" height="90" as="geometry" />
        </mxCell>
        <mxCell id="zbsmwXQ62eeeNvYu7n_z-9" style="edgeStyle=orthogonalEdgeStyle;rounded=0;orthogonalLoop=1;jettySize=auto;html=1;exitX=1;exitY=1;exitDx=0;exitDy=0;" edge="1" parent="1">
          <mxGeometry relative="1" as="geometry">
            <mxPoint x="545" y="305" as="sourcePoint" />
            <mxPoint x="485" y="305" as="targetPoint" />
          </mxGeometry>
        </mxCell>
        <mxCell id="zbsmwXQ62eeeNvYu7n_z-11" value="&lt;p style=&quot;line-height: 140%; font-size: 29px;&quot;&gt;&lt;font style=&quot;font-size: 29px;&quot; face=&quot;Times New Roman&quot;&gt;&lt;br&gt;&lt;/font&gt;&lt;/p&gt;" style="whiteSpace=wrap;html=1;aspect=fixed;fillColor=#f5f5f5;strokeColor=#000000;fontColor=#333333;" vertex="1" parent="1">
          <mxGeometry x="860" y="130" width="300" height="300" as="geometry" />
        </mxCell>
        <mxCell id="zbsmwXQ62eeeNvYu7n_z-12" value="" style="endArrow=none;html=1;rounded=0;exitX=0;exitY=0.25;exitDx=0;exitDy=0;entryX=1;entryY=0.25;entryDx=0;entryDy=0;strokeColor=#000000;" edge="1" parent="1">
          <mxGeometry width="50" height="50" relative="1" as="geometry">
            <mxPoint x="860" y="200" as="sourcePoint" />
            <mxPoint x="1170" y="200" as="targetPoint" />
          </mxGeometry>
        </mxCell>
        <mxCell id="zbsmwXQ62eeeNvYu7n_z-13" value="&lt;font style=&quot;font-size: 27px;&quot; color=&quot;#000000&quot;&gt;Category&lt;/font&gt;" style="text;strokeColor=none;align=center;fillColor=none;html=1;verticalAlign=middle;whiteSpace=wrap;rounded=0;strokeWidth=5;" vertex="1" parent="1">
          <mxGeometry x="890" y="160" width="60" height="30" as="geometry" />
        </mxCell>
        <mxCell id="zbsmwXQ62eeeNvYu7n_z-14" value="&lt;div style=&quot;font-size: 16px;&quot;&gt;&lt;span style=&quot;color: rgb(0, 0, 0); background-color: initial;&quot;&gt;&lt;font style=&quot;font-size: 16px;&quot;&gt;CategoryID(primary key)&lt;/font&gt;&lt;/span&gt;&lt;/div&gt;&lt;font style=&quot;font-size: 16px;&quot; color=&quot;#000000&quot;&gt;&lt;div style=&quot;&quot;&gt;&lt;span style=&quot;background-color: initial;&quot;&gt;UserID(foreign key)&lt;/span&gt;&lt;/div&gt;&lt;div style=&quot;&quot;&gt;&lt;span style=&quot;background-color: initial;&quot;&gt;Category&lt;/span&gt;&lt;/div&gt;&lt;/font&gt;" style="text;strokeColor=none;align=left;fillColor=none;html=1;verticalAlign=middle;whiteSpace=wrap;rounded=0;" vertex="1" parent="1">
          <mxGeometry x="870" y="200" width="190" height="90" as="geometry" />
        </mxCell>
        <mxCell id="zbsmwXQ62eeeNvYu7n_z-19" value="" style="ellipse;whiteSpace=wrap;html=1;aspect=fixed;" vertex="1" parent="1">
          <mxGeometry x="810" y="270" width="20" height="20" as="geometry" />
        </mxCell>
        <mxCell id="zbsmwXQ62eeeNvYu7n_z-20" value="" style="endArrow=none;html=1;rounded=0;exitX=0.997;exitY=0.391;exitDx=0;exitDy=0;entryX=0;entryY=0.5;entryDx=0;entryDy=0;exitPerimeter=0;" edge="1" parent="1" source="zbsmwXQ62eeeNvYu7n_z-1">
          <mxGeometry width="50" height="50" relative="1" as="geometry">
            <mxPoint x="700" y="270" as="sourcePoint" />
            <mxPoint x="589.999999999982" y="280" as="targetPoint" />
          </mxGeometry>
        </mxCell>
        <mxCell id="zbsmwXQ62eeeNvYu7n_z-21" value="" style="endArrow=none;html=1;rounded=0;" edge="1" parent="1">
          <mxGeometry width="50" height="50" relative="1" as="geometry">
            <mxPoint x="560" y="280" as="sourcePoint" />
            <mxPoint x="590" y="280" as="targetPoint" />
          </mxGeometry>
        </mxCell>
        <mxCell id="zbsmwXQ62eeeNvYu7n_z-23" value="" style="ellipse;whiteSpace=wrap;html=1;aspect=fixed;" vertex="1" parent="1">
          <mxGeometry x="590" y="270" width="20" height="20" as="geometry" />
        </mxCell>
        <mxCell id="zbsmwXQ62eeeNvYu7n_z-24" value="" style="endArrow=none;html=1;rounded=0;entryX=0;entryY=0.5;entryDx=0;entryDy=0;" edge="1" parent="1" target="zbsmwXQ62eeeNvYu7n_z-23">
          <mxGeometry width="50" height="50" relative="1" as="geometry">
            <mxPoint x="560" y="320" as="sourcePoint" />
            <mxPoint x="600" y="290" as="targetPoint" />
          </mxGeometry>
        </mxCell>
        <mxCell id="zbsmwXQ62eeeNvYu7n_z-33" value="" style="endArrow=none;html=1;rounded=0;entryX=1;entryY=0.5;entryDx=0;entryDy=0;" edge="1" parent="1" target="zbsmwXQ62eeeNvYu7n_z-19">
          <mxGeometry width="50" height="50" relative="1" as="geometry">
            <mxPoint x="860" y="240" as="sourcePoint" />
            <mxPoint x="599.999999999982" y="290" as="targetPoint" />
          </mxGeometry>
        </mxCell>
        <mxCell id="zbsmwXQ62eeeNvYu7n_z-34" value="" style="endArrow=none;html=1;rounded=0;exitX=0;exitY=0.5;exitDx=0;exitDy=0;entryX=1;entryY=0.5;entryDx=0;entryDy=0;" edge="1" parent="1" source="zbsmwXQ62eeeNvYu7n_z-11" target="zbsmwXQ62eeeNvYu7n_z-19">
          <mxGeometry width="50" height="50" relative="1" as="geometry">
            <mxPoint x="867" y="258" as="sourcePoint" />
            <mxPoint x="840" y="290" as="targetPoint" />
          </mxGeometry>
        </mxCell>
        <mxCell id="zbsmwXQ62eeeNvYu7n_z-35" value="" style="endArrow=none;html=1;rounded=0;entryX=1;entryY=0.5;entryDx=0;entryDy=0;" edge="1" parent="1" target="zbsmwXQ62eeeNvYu7n_z-19">
          <mxGeometry width="50" height="50" relative="1" as="geometry">
            <mxPoint x="860" y="320" as="sourcePoint" />
            <mxPoint x="850" y="300" as="targetPoint" />
          </mxGeometry>
        </mxCell>
        <mxCell id="zbsmwXQ62eeeNvYu7n_z-36" value="" style="endArrow=none;html=1;rounded=0;exitX=0;exitY=0.5;exitDx=0;exitDy=0;entryX=1;entryY=0.5;entryDx=0;entryDy=0;" edge="1" parent="1" source="zbsmwXQ62eeeNvYu7n_z-19" target="zbsmwXQ62eeeNvYu7n_z-23">
          <mxGeometry width="50" height="50" relative="1" as="geometry">
            <mxPoint x="887" y="278" as="sourcePoint" />
            <mxPoint x="860" y="310" as="targetPoint" />
          </mxGeometry>
        </mxCell>
        <mxCell id="zbsmwXQ62eeeNvYu7n_z-39" style="edgeStyle=orthogonalEdgeStyle;rounded=0;orthogonalLoop=1;jettySize=auto;html=1;entryX=0.5;entryY=0;entryDx=0;entryDy=0;" edge="1" parent="1" source="zbsmwXQ62eeeNvYu7n_z-37" target="zbsmwXQ62eeeNvYu7n_z-38">
          <mxGeometry relative="1" as="geometry" />
        </mxCell>
        <mxCell id="zbsmwXQ62eeeNvYu7n_z-37" value="&lt;font style=&quot;font-size: 39px;&quot;&gt;user&lt;/font&gt;" style="ellipse;whiteSpace=wrap;html=1;fillColor=#f5f5f5;fontColor=#333333;strokeColor=#666666;" vertex="1" parent="1">
          <mxGeometry x="280" y="620" width="330" height="150" as="geometry" />
        </mxCell>
        <mxCell id="zbsmwXQ62eeeNvYu7n_z-40" style="edgeStyle=orthogonalEdgeStyle;rounded=0;orthogonalLoop=1;jettySize=auto;html=1;entryX=0.5;entryY=1;entryDx=0;entryDy=0;" edge="1" parent="1" source="zbsmwXQ62eeeNvYu7n_z-38" target="zbsmwXQ62eeeNvYu7n_z-37">
          <mxGeometry relative="1" as="geometry" />
        </mxCell>
        <mxCell id="zbsmwXQ62eeeNvYu7n_z-38" value="&lt;font style=&quot;font-size: 26px;&quot;&gt;system&lt;/font&gt;" style="rounded=0;whiteSpace=wrap;html=1;fillColor=#f5f5f5;fontColor=#333333;strokeColor=#666666;" vertex="1" parent="1">
          <mxGeometry x="880" y="630" width="320" height="170" as="geometry" />
        </mxCell>
        <mxCell id="zbsmwXQ62eeeNvYu7n_z-41" value="add, edit, delete" style="text;strokeColor=none;align=center;fillColor=none;html=1;verticalAlign=middle;whiteSpace=wrap;rounded=0;" vertex="1" parent="1">
          <mxGeometry x="750" y="580" width="90" height="30" as="geometry" />
        </mxCell>
        <mxCell id="zbsmwXQ62eeeNvYu7n_z-42" value="display data" style="text;strokeColor=none;align=center;fillColor=none;html=1;verticalAlign=middle;whiteSpace=wrap;rounded=0;" vertex="1" parent="1">
          <mxGeometry x="680" y="790" width="70" height="30" as="geometry" />
        </mxCell>
      </root>
    </mxGraphModel>
  </diagram>
</mxfile>
